PathFileType	4	(X/Y/Z)	C:/Users/opensim2020/Desktop/walking_exp_matlab/subject06_walking20_straight_03.trc	
DataRate	CameraRate	NumFrames	NumMarkers	Units	OrigDataRate	OrigDataStartFrame	OrigNumFrames	
100.00	100.00	6	43	mm	100.00	1697	132	
Frame#	Time	LFHD			RFHD			LBHD			RBHD			C7			T10			CLAV			STRN			RBAK			LSHO			LUPA			LELB			LFRM			LWRA			LWRB			LFIN			RSHO			RUPA			RELB			RFRM			RWRA			RWRB			RFIN			LASI			RASI			LPSI			RPSI			LTHI			LKNE			LTIB			LANK			LHEE			LTOE			RTHI			RKNE			RTIB			RANK			RHEE			RTOE			*39			*40			*41			*42			
		X1	Y1	Z1	X2	Y2	Z2	X3	Y3	Z3	X4	Y4	Z4	X5	Y5	Z5	X6	Y6	Z6	X7	Y7	Z7	X8	Y8	Z8	X9	Y9	Z9	X10	Y10	Z10	X11	Y11	Z11	X12	Y12	Z12	X13	Y13	Z13	X14	Y14	Z14	X15	Y15	Z15	X16	Y16	Z16	X17	Y17	Z17	X18	Y18	Z18	X19	Y19	Z19	X20	Y20	Z20	X21	Y21	Z21	X22	Y22	Z22	X23	Y23	Z23	X24	Y24	Z24	X25	Y25	Z25	X26	Y26	Z26	X27	Y27	Z27	X28	Y28	Z28	X29	Y29	Z29	X30	Y30	Z30	X31	Y31	Z31	X32	Y32	Z32	X33	Y33	Z33	X34	Y34	Z34	X35	Y35	Z35	X36	Y36	Z36	X37	Y37	Z37	X38	Y38	Z38	X39	Y39	Z39	X40	Y40	Z40	X41	Y41	Z41	X42	Y42	Z42	X43	Y43	Z43	

17	0.160	-1047.48706	-731.59894	1616.77795	-918.39813	-742.90405	1595.49207	-1062.46594	-868.04858	1571.32642	-934.18951	-876.39435	1555.01904	-1016.08191	-883.48438	1412.91675	-1010.12030	-955.55481	1089.93896	-1013.36603	-781.78912	1323.32068	-1027.06458	-762.31293	1145.17615	-946.73083	-976.81952	1249.92603	-1175.07068	-825.81812	1367.23718	-1263.40356	-801.08441	1175.38904	-1286.67468	-773.05621	1067.44971	-1305.86060	-661.23505	970.64703	-1258.69739	-540.59741	936.25153	-1292.39197	-577.36786	886.03693	-1294.92908	-490.03741	865.12463	-852.01648	-830.94415	1356.02698	-771.40778	-931.23090	1181.06641	-755.44464	-964.35907	1063.99805	-733.56262	-996.31689	948.44678	-752.40503	-991.26062	795.00507	-720.32153	-1046.12683	819.46802	-712.73492	-1042.60510	735.61914	-1127.60522	-803.94263	912.98236	-906.11841	-782.66101	920.56879	-1081.44580	-957.10522	953.97369	-913.64966	-934.75391	951.53223	-1179.81287	-933.10541	618.43127	-1162.71497	-980.11029	457.05338	-1168.75049	-1114.93848	235.67464	-1131.69287	-1194.91418	82.13128	-1090.47961	-1243.69495	79.96503	-1121.90637	-1063.54358	31.91438	-834.41626	-759.04736	602.75824	-869.14331	-698.61633	493.28558	-885.95984	-645.60516	241.83806	-935.48297	-586.12476	67.19035	-982.87244	-615.30420	37.39869	-937.09436	-429.75165	71.98963	-993.76385	-834.74921	1656.26624									 
18	0.170	-1047.85754	-719.56299	1616.05566	-918.41461	-730.85883	1594.49048	-1062.72217	-855.70050	1570.14099	-934.48315	-864.20709	1553.69604	-1016.37024	-870.92957	1411.79944	-1010.80444	-942.33209	1088.55786	-1013.40106	-769.13354	1322.27393	-1027.24353	-749.27655	1144.11804	-947.54248	-964.15179	1248.50110	-1175.25623	-812.93585	1366.01514	-1263.42773	-787.18408	1174.31079	-1286.34839	-758.26324	1066.64099	-1304.74268	-644.25879	972.74878	-1256.46655	-522.99951	942.22644	-1290.75415	-557.99835	890.81671	-1292.35950	-469.97357	872.80859	-852.14630	-818.50806	1354.79504	-772.11761	-919.58929	1179.87927	-756.22736	-953.30206	1063.10608	-734.23511	-986.83606	948.00909	-753.07758	-984.33765	794.19739	-720.72351	-1038.26392	819.93170	-713.06799	-1036.35632	735.96826	-1128.13269	-790.56024	911.81897	-906.46759	-769.04504	919.58752	-1081.33582	-943.89453	952.10675	-913.44830	-921.53503	950.27283	-1180.29272	-920.87000	617.51013	-1163.36206	-969.52057	456.40118	-1169.45740	-1108.97266	238.16608	-1132.78540	-1192.86902	86.40998	-1091.69629	-1241.67102	85.76803	-1122.21155	-1063.16431	31.86359	-834.46356	-743.89276	602.23608	-869.87311	-684.75079	492.73618	-885.38879	-631.52411	241.19484	-934.80865	-572.00909	66.48367	-981.93262	-601.20422	36.69553	-937.05322	-415.95441	72.20532	-993.94330	-822.71075	1655.07141									 
19	0.180	-1048.01465	-707.58484	1615.54773	-918.33972	-718.57764	1593.89258	-1062.91455	-843.19635	1569.31982	-934.62292	-851.97919	1552.86951	-1016.48193	-858.42535	1411.00427	-1011.40826	-928.75812	1087.39600	-1013.31000	-756.32507	1321.58130	-1027.04578	-735.95569	1143.49023	-948.01874	-951.14709	1247.45740	-1175.30994	-799.90875	1365.16321	-1263.12463	-773.47321	1173.58691	-1285.67554	-743.84277	1066.03979	-1303.37610	-627.88629	974.82190	-1254.29321	-506.31265	947.74274	-1288.80530	-539.64490	895.24957	-1289.66919	-450.97711	879.98303	-852.05658	-805.86017	1354.04919	-772.58771	-907.50568	1179.18958	-756.88629	-941.66986	1062.55469	-735.00385	-976.57660	947.87897	-752.89661	-975.83667	794.20697	-721.51678	-1029.63782	820.47076	-713.40985	-1029.18396	736.58112	-1128.31702	-776.70892	910.83142	-906.34338	-755.48547	918.99976	-1081.35156	-930.17072	950.64832	-913.40106	-907.85742	949.56073	-1180.52576	-908.05225	616.59778	-1163.71802	-957.76636	455.82755	-1170.63074	-1099.34839	242.59143	-1133.89978	-1190.26367	91.26659	-1093.02271	-1238.92480	92.09525	-1122.44116	-1062.67578	31.84708	-834.71777	-728.38159	602.49744	-870.55304	-670.39618	492.99438	-885.02533	-618.77209	240.60333	-934.64581	-560.90833	65.22585	-981.01147	-591.10205	36.46384	-937.23364	-405.01535	70.08090	-993.97009	-810.49280	1654.31177									 
20	0.190	-1047.10144	-694.38342	1615.20947	-918.16461	-706.30603	1593.77209	-1062.95581	-830.58319	1568.93884	-934.73065	-839.48560	1552.52539	-1016.36981	-845.65161	1410.47632	-1011.89465	-914.80054	1086.57092	-1013.09070	-743.26624	1321.38452	-1026.65405	-722.29016	1143.27844	-948.12476	-937.91956	1246.79126	-1175.06653	-786.80652	1364.76172	-1262.34741	-759.75250	1173.22217	-1284.85315	-729.67334	1065.72546	-1301.82397	-612.26038	976.84064	-1252.05847	-490.44894	952.85065	-1286.50659	-522.27448	899.55743	-1286.97766	-433.19037	886.59332	-851.87720	-792.97394	1353.78040	-773.16699	-895.04669	1178.83862	-757.57819	-929.34698	1062.34497	-735.50806	-965.67059	948.10272	-753.06458	-966.90552	794.26044	-721.81873	-1020.43860	821.54132	-713.65961	-1021.28156	737.61884	-1128.24463	-762.41681	910.18091	-906.08154	-741.16003	919.11810	-1081.57190	-916.10693	949.73810	-913.32019	-893.85132	949.52161	-1180.52405	-894.60406	615.77130	-1163.99231	-945.24414	455.10400	-1170.50818	-1094.77673	243.97084	-1135.01331	-1186.98669	96.70174	-1094.48108	-1235.44922	99.12958	-1122.77332	-1061.73328	32.14128	-835.32092	-712.69446	603.39697	-871.01508	-655.70172	494.15714	-885.40039	-607.39575	240.14449	-935.13031	-552.99890	63.98101	-981.88013	-585.22028	37.76115	-937.56628	-397.61032	62.31371	-994.02057	-798.09161	1654.12988									 
21	0.200	-1047.87793	-682.51886	1615.84363	-917.98267	-693.70294	1594.25806	-1062.85144	-817.86670	1569.09583	-934.63544	-826.84393	1552.73633	-1016.16089	-832.81696	1410.53149	-1012.49396	-900.52948	1086.12976	-1012.67340	-730.05847	1321.72217	-1026.01489	-708.44373	1143.70349	-948.01752	-924.67749	1246.58630	-1174.58057	-773.56451	1365.00696	-1261.18872	-746.01996	1173.21851	-1283.57568	-716.09668	1065.84949	-1300.15198	-597.43335	978.86511	-1249.86060	-475.41370	957.51813	-1284.23804	-505.88760	903.47858	-1284.30225	-416.57993	892.56122	-851.56281	-779.95471	1354.04138	-773.32196	-882.30969	1178.89172	-758.02948	-916.73285	1062.48071	-736.09021	-954.22736	948.66833	-753.23828	-956.95404	794.65710	-722.44153	-1010.19751	822.46997	-713.91022	-1012.21533	738.73761	-1127.67346	-747.46704	909.80060	-905.53027	-727.13696	919.67834	-1081.91980	-901.47168	949.25757	-912.97522	-880.10516	950.41974	-1180.27637	-880.30334	615.01093	-1163.57361	-931.40192	454.53848	-1170.90381	-1085.16687	248.01520	-1136.13342	-1182.87183	102.92192	-1095.86853	-1231.28369	107.22359	-1123.66101	-1062.33496	31.45681	-836.03271	-697.21478	605.25726	-871.07794	-640.65289	496.41269	-886.03839	-597.04883	240.49222	-935.43439	-550.02881	63.35743	-982.42535	-584.11639	39.34284	-939.38843	-395.62643	50.33126	-993.95129	-785.62683	1654.23828									 
22	0.210	-1047.38782	-669.59204	1616.92859	-917.70331	-681.07184	1595.52344	-1062.70020	-804.99890	1569.79150	-934.42786	-814.08942	1553.60449	-1015.85992	-819.61847	1411.26062	-1013.28967	-886.23285	1086.40015	-1012.17957	-716.54755	1322.73938	-1025.16150	-694.44812	1144.71899	-947.88593	-911.29102	1246.98145	-1174.49951	-760.55353	1365.47827	-1260.75732	-732.78467	1173.65442	-1282.08069	-702.83960	1066.20093	-1298.25293	-583.36157	980.80042	-1247.78235	-461.23767	961.64368	-1281.95740	-490.59641	906.94409	-1281.75586	-401.02579	897.81171	-851.15521	-766.83673	1354.84058	-773.32324	-868.84296	1179.27637	-758.39496	-903.62164	1062.98853	-736.46979	-942.00677	949.47589	-753.38483	-946.00409	795.37555	-722.85632	-999.09802	823.80682	-714.12952	-1002.47150	740.20850	-1126.67188	-732.13098	909.90149	-905.09534	-712.57684	921.19330	-1082.53271	-886.33661	949.47760	-913.33881	-865.75922	952.12762	-1179.76685	-865.07751	614.43243	-1162.81702	-916.39301	454.00320	-1170.74744	-1073.75232	252.64621	-1137.14807	-1177.63391	109.89743	-1097.31787	-1225.93311	116.29203	-1123.71802	-1061.18896	31.84998	-836.34711	-681.76715	608.51819	-871.83313	-624.88538	500.78470	-885.82648	-587.77130	241.83992	-935.62451	-550.20288	63.17231	-982.61334	-584.52289	39.59363	-941.21887	-395.45450	43.77956	-993.84485	-773.04065	1655.12146									 
